<?xml version="1.0" encoding="utf-8"?>
<!-- Generator: Adobe Illustrator 26.4.1, SVG Export Plug-In . SVG Version: 6.00 Build 0)  -->
<svg version="1.1" xmlns="http://www.w3.org/2000/svg" xmlns:xlink="http://www.w3.org/1999/xlink" x="0px" y="0px"
	 viewBox="0 0 2556.67 1538.77" style="enable-background:new 0 0 2556.67 1538.77;" xml:space="preserve">
<style type="text/css">
	.st0{fill:#003088;}
	.st1{fill:#FFFFFF;}
	.st2{fill:#EA0028;}
	.st3{display:none;}
	.st4{display:inline;opacity:0.2;fill:#E4032E;}
</style>
<g id="IN_groupe">
	<g>
		<g id="XMLID_3_">
			<g id="XMLID_4_">
				<g id="XMLID_5_">
					<path id="XMLID_6_" class="st0" d="M768.33,308.08c-255.41-0.03-462.37,207.02-462.36,462.35
						c0.01,255.27,207,462.28,462.36,462.31c255.3,0.01,462.25-206.98,462.3-462.33C1230.63,515.05,1023.64,308.05,768.33,308.08z"
						/>
				</g>
			</g>
		</g>
		<path class="st1" d="M826.91,651.72c-84.52-29.54-168.83-37.59-222.95-40.86c-5.55-8.39-7.22-23.31-6.28-34.05
			c45.36-9.22,100.88-11.81,155.17-9.34l10.55-26.85c-63.85-44.84-144.21-63.77-198.37-52.15c-60.15,40.34-90.24,115-54.48,181.78
			l-27.37,43.46c0,0-29.23,6.92-46.93,15.96c-8.08,10.19-9.62,21.73-9.62,21.73h79.24l44.45-33.39
			c37.85,31.4,87.09,48.92,133.24,57.84c7.18-17.91,27.66-36.55,48.18-44.23c2.41-0.3,5.54,0.25,6.62,0.54
			c-15.3,12.75-26.38,28.26-32.24,48.49c-1.28,18.71,8.63,43.93,13.17,54.82c-19.32,4.42-30.58,8.03-46.83,14.9
			c-6.69,7.26-10.68,19.69-11.63,25.85H767.9l71.81-80.23c81.56,2.71,165.1,50.75,149.64,135.9c-3.24,17.83-17.18,58.63-67.05,76.82
			c-81.87,27.86-154.56-36.56-221.4-73.62c-62.66-34.74-127.72-41.05-189.51-9.32c-9.66,11.19-12.47,27.05-12.47,27.05
			c24.72-10.61,43.99-14.64,69.51-16.47c96.16-6.91,164.24,97.86,252.72,121.25c123.08,32.55,233.22-34.15,245.6-150.4
			C1073.5,838.24,1037.66,726.99,826.91,651.72z M689.5,519.39c-54.8,22.12-62.98,1.54-67.23-15.66
			C646.25,505.41,668.95,510.86,689.5,519.39z"/>
		<g>
			<path class="st2" d="M1022.59,497.28l31.45-22.12c-126.05-8.71-234.23,51.66-272.92,94.51c61.21,5.79,127.37,20.47,187.23,50.47
				l-9.71-34.93c54.67,27.52,129.65,42.48,177.62,34.25l-23.74-21.29c114.59-14.12,157.66-89.73,162.23-97.45
				C1193.19,517.03,1093.49,521.02,1022.59,497.28z"/>
		</g>
	</g>
	<g>
		<g>
			<path class="st0" d="M1776.6,1066.42c-38.76,0-68.86,28.31-68.86,64.53c0,36.41,29.45,63.87,68.5,63.87
				c38.65,0,68.85-28.49,68.85-63.94C1845.08,1092.58,1814.17,1066.42,1776.6,1066.42z M1776.6,1173.98
				c-24.43,0-44.81-18.36-44.81-43.7c0-24.54,19.11-43.04,44.45-43.04c25.92,0,44.8,18.99,44.8,43.7
				C1821.04,1155.48,1801.93,1173.98,1776.6,1173.98z"/>
			<path class="st0" d="M1961.17,1068.42v71.62c0,22.1-11.47,33.78-33.15,33.78c-21.41,0-33.69-12.62-33.69-34.61v-70.79h-23.51
				v71.62c0,33.69,21.78,54.62,56.84,54.62c35.71,0,57.03-20.79,57.03-55.61v-70.63H1961.17z"/>
			<path class="st0" d="M2073.68,1068.42h-56.52v124.42h23.51v-40.81h30.67c26.87,0,53.98-13.16,53.98-42.56
				C2125.33,1084.52,2105.06,1068.42,2073.68,1068.42z M2101.63,1110.3c0,12.59-11.95,21.06-29.74,21.06h-31.21v-42.12h31.93
				C2089.36,1089.24,2101.63,1095.15,2101.63,1110.3z"/>
			<path class="st0" d="M1658.27,1147.28c17.72-6.93,27.46-20.32,27.46-37.81c0-24.95-20.27-41.05-51.65-41.05h-58.95v124.42h23.51
				v-40.81h34.56l33.03,40.81h29.18L1658.27,1147.28z M1632.28,1131.35h-33.64v-42.11H1633c19.33,0,29.03,7.69,29.03,21.06
				C1662.03,1122.89,1650.07,1131.35,1632.28,1131.35z"/>
			<polygon class="st0" points="2247.28,1089.07 2247.28,1068.42 2146.31,1068.42 2146.31,1192.84 2247.28,1192.84 2247.28,1172.17 
				2169.83,1172.17 2169.83,1140.46 2238.31,1140.46 2238.31,1119.79 2169.83,1119.79 2169.83,1089.07 			"/>
			<path class="st0" d="M1483.08,1119.54v20.52h35.58v31.23h-36.26c-27.8,0-45.65-19.88-45.65-40.79
				c0-22.49,19.85-40.79,44.25-40.79l52.44,0l-0.01-21.3h-52.45c-37.83,0-67.57,28.13-67.57,62.1c0,34.38,30.31,62.32,67.57,62.32
				h61.02l0-73.3H1483.08z"/>
		</g>
		<g>
			<path id="XMLID_1_" class="st0" d="M1422.11,1005.71V454.1h147.41v551.62H1422.11z"/>
			<polygon class="st0" points="2107.73,454.1 2107.73,814.05 2105.15,814.05 1861.76,454.1 1694.64,454.1 1694.64,1005.71 
				1833.47,1005.71 1833.47,644.98 1833.48,644.98 1836.05,644.98 2080.3,1005.71 2246.56,1005.71 2246.56,454.1 			"/>
		</g>
	</g>
</g>
<g id="zone_de_protection" class="st3">
	<rect x="-2.11" y="0" class="st4" width="308.08" height="1538.77"/>
	<rect x="2248.59" y="0" class="st4" width="308.08" height="1538.77"/>
	
		<rect x="1123.75" y="-1124.84" transform="matrix(-1.836970e-16 1 -1 -1.836970e-16 1431.83 -1123.7542)" class="st4" width="308.08" height="2557.75"/>
	
		<rect x="1123.75" y="105.85" transform="matrix(-1.836970e-16 1 -1 -1.836970e-16 2662.52 106.9361)" class="st4" width="308.08" height="2557.75"/>
</g>
</svg>
